<?xml version="1.0" encoding="iso-8859-1"?>
<!-- Uploaded to: SVG Repo, www.svgrepo.com, Generator: SVG Repo Mixer Tools -->
<svg height="800px" width="800px" version="1.1" id="Layer_1" xmlns="http://www.w3.org/2000/svg" xmlns:xlink="http://www.w3.org/1999/xlink" 
	 viewBox="0 0 503.322 503.322" xml:space="preserve">
<g>
	<g>
		<path style="fill:#797979;" d="M138.844,407.864c0-23.96-19.43-43.39-43.39-43.39s-43.39,19.43-43.39,43.39
			s19.43,43.39,43.39,43.39S138.844,431.824,138.844,407.864"/>
		<path style="fill:#797979;" d="M451.251,407.864c0-23.96-19.43-43.39-43.39-43.39c-23.96,0-43.39,19.43-43.39,43.39
			s19.43,43.39,43.39,43.39C431.821,451.254,451.251,431.824,451.251,407.864"/>
	</g>
	<path style="fill:#A98258;" d="M286.369,283.358V173.556H164.878v121.492h78.128C258.817,295.047,273.604,290.752,286.369,283.358"
		/>
	<g>
		<path style="fill:#C0C0C0;" d="M95.454,425.22c-9.58,0-17.356-7.775-17.356-17.356s7.775-17.356,17.356-17.356
			s17.356,7.775,17.356,17.356S105.035,425.22,95.454,425.22"/>
		<path style="fill:#C0C0C0;" d="M407.861,425.22c-9.58,0-17.356-7.775-17.356-17.356s7.775-17.356,17.356-17.356
			s17.356,7.775,17.356,17.356S417.441,425.22,407.861,425.22"/>
	</g>
	<path style="fill:#48A0DC;" d="M497.864,318.902l-37.931-15.178l-22.754-90.988c-1.926-7.723-8.869-13.147-16.835-13.147h-90.581
		v8.704c0,47.92-38.843,86.754-86.762,86.754H0v104.136c0,4.799,3.879,8.678,8.678,8.678h43.39c0-23.96,19.421-43.39,43.39-43.39
		c23.96,0,43.39,19.43,43.39,43.39h190.915h34.712c0-23.96,19.421-43.39,43.39-43.39c23.96,0,43.39,19.43,43.39,43.39h43.39
		c4.79,0,8.678-3.879,8.678-8.678v-72.227C503.322,323.415,501.161,320.221,497.864,318.902"/>
	<polygon style="fill:#896745;" points="43.391,295.051 164.882,295.051 164.882,173.559 43.391,173.559 	"/>
	<polygon style="fill:#C69666;" points="104.136,173.559 225.628,173.559 225.628,52.068 104.136,52.068 	"/>
	<g>
		<polygon style="fill:#E8D5B2;" points="190.912,104.136 164.878,86.78 138.844,104.136 138.844,52.068 190.912,52.068 		"/>
		<polygon style="fill:#E8D5B2;" points="130.166,225.627 104.132,208.271 78.098,225.627 78.098,173.559 130.166,173.559 		"/>
		<polygon style="fill:#E8D5B2;" points="251.658,225.627 225.624,208.271 199.59,225.627 199.59,173.559 251.658,173.559 		"/>
	</g>
	<path style="fill:#337FAA;" d="M381.827,347.119h-17.356c-4.79,0-8.678-3.888-8.678-8.678s3.888-8.678,8.678-8.678h17.356
		c4.79,0,8.678,3.888,8.678,8.678S386.617,347.119,381.827,347.119"/>
	<path style="fill:#48A0DC;" d="M338.437,208.271c-4.79,0-8.678-3.888-8.678-8.678v-69.424c0-4.79,3.888-8.678,8.678-8.678
		c4.79,0,8.678,3.888,8.678,8.678v69.424C347.115,204.383,343.227,208.271,338.437,208.271"/>
	<path style="fill:#337FAA;" d="M481.625,312.407l-21.695-8.678l-2.169-8.678h-73.589c-6.075,0-11.021-4.946-11.021-11.021v-41.047
		c0-4.79-3.888-8.678-8.678-8.678c-4.79,0-8.678,3.888-8.678,8.678v41.047c0,15.646,12.731,28.377,28.377,28.377H481.625z"/>
</g>
</svg>